<mxfile host="app.diagrams.net" modified="2020-11-12T10:09:45.338Z" agent="5.0 (X11)" etag="uhoL0HyS-rdjnrqbQ4Jm" version="13.9.7" type="github">
  <diagram id="R2lEEEUBdFMjLlhIrx00" name="Page-1">
    <mxGraphModel dx="1422" dy="784" grid="1" gridSize="10" guides="1" tooltips="1" connect="1" arrows="1" fold="1" page="1" pageScale="1" pageWidth="850" pageHeight="1100" math="0" shadow="0" extFonts="Permanent Marker^https://fonts.googleapis.com/css?family=Permanent+Marker">
      <root>
        <mxCell id="0" />
        <mxCell id="1" parent="0" />
        <mxCell id="dSGslV_Rc7mYf-Z6n4pa-28" value="university" style="shape=table;startSize=30;container=1;collapsible=1;childLayout=tableLayout;fixedRows=1;rowLines=0;fontStyle=1;align=center;resizeLast=1;" vertex="1" parent="1">
          <mxGeometry x="130" y="60" width="180" height="160" as="geometry" />
        </mxCell>
        <mxCell id="dSGslV_Rc7mYf-Z6n4pa-29" value="" style="shape=partialRectangle;collapsible=0;dropTarget=0;pointerEvents=0;fillColor=none;top=0;left=0;bottom=1;right=0;points=[[0,0.5],[1,0.5]];portConstraint=eastwest;" vertex="1" parent="dSGslV_Rc7mYf-Z6n4pa-28">
          <mxGeometry y="30" width="180" height="30" as="geometry" />
        </mxCell>
        <mxCell id="dSGslV_Rc7mYf-Z6n4pa-30" value="PK" style="shape=partialRectangle;connectable=0;fillColor=none;top=0;left=0;bottom=0;right=0;fontStyle=1;overflow=hidden;" vertex="1" parent="dSGslV_Rc7mYf-Z6n4pa-29">
          <mxGeometry width="30" height="30" as="geometry" />
        </mxCell>
        <mxCell id="dSGslV_Rc7mYf-Z6n4pa-31" value="UNI_ID" style="shape=partialRectangle;connectable=0;fillColor=none;top=0;left=0;bottom=0;right=0;align=left;spacingLeft=6;fontStyle=5;overflow=hidden;" vertex="1" parent="dSGslV_Rc7mYf-Z6n4pa-29">
          <mxGeometry x="30" width="150" height="30" as="geometry" />
        </mxCell>
        <mxCell id="dSGslV_Rc7mYf-Z6n4pa-32" value="" style="shape=partialRectangle;collapsible=0;dropTarget=0;pointerEvents=0;fillColor=none;top=0;left=0;bottom=0;right=0;points=[[0,0.5],[1,0.5]];portConstraint=eastwest;" vertex="1" parent="dSGslV_Rc7mYf-Z6n4pa-28">
          <mxGeometry y="60" width="180" height="30" as="geometry" />
        </mxCell>
        <mxCell id="dSGslV_Rc7mYf-Z6n4pa-33" value="" style="shape=partialRectangle;connectable=0;fillColor=none;top=0;left=0;bottom=0;right=0;editable=1;overflow=hidden;" vertex="1" parent="dSGslV_Rc7mYf-Z6n4pa-32">
          <mxGeometry width="30" height="30" as="geometry" />
        </mxCell>
        <mxCell id="dSGslV_Rc7mYf-Z6n4pa-34" value="name" style="shape=partialRectangle;connectable=0;fillColor=none;top=0;left=0;bottom=0;right=0;align=left;spacingLeft=6;overflow=hidden;" vertex="1" parent="dSGslV_Rc7mYf-Z6n4pa-32">
          <mxGeometry x="30" width="150" height="30" as="geometry" />
        </mxCell>
        <mxCell id="dSGslV_Rc7mYf-Z6n4pa-35" value="" style="shape=partialRectangle;collapsible=0;dropTarget=0;pointerEvents=0;fillColor=none;top=0;left=0;bottom=0;right=0;points=[[0,0.5],[1,0.5]];portConstraint=eastwest;" vertex="1" parent="dSGslV_Rc7mYf-Z6n4pa-28">
          <mxGeometry y="90" width="180" height="30" as="geometry" />
        </mxCell>
        <mxCell id="dSGslV_Rc7mYf-Z6n4pa-36" value="" style="shape=partialRectangle;connectable=0;fillColor=none;top=0;left=0;bottom=0;right=0;editable=1;overflow=hidden;" vertex="1" parent="dSGslV_Rc7mYf-Z6n4pa-35">
          <mxGeometry width="30" height="30" as="geometry" />
        </mxCell>
        <mxCell id="dSGslV_Rc7mYf-Z6n4pa-37" value="address" style="shape=partialRectangle;connectable=0;fillColor=none;top=0;left=0;bottom=0;right=0;align=left;spacingLeft=6;overflow=hidden;" vertex="1" parent="dSGslV_Rc7mYf-Z6n4pa-35">
          <mxGeometry x="30" width="150" height="30" as="geometry" />
        </mxCell>
        <mxCell id="dSGslV_Rc7mYf-Z6n4pa-38" value="" style="shape=partialRectangle;collapsible=0;dropTarget=0;pointerEvents=0;fillColor=none;top=0;left=0;bottom=0;right=0;points=[[0,0.5],[1,0.5]];portConstraint=eastwest;" vertex="1" parent="dSGslV_Rc7mYf-Z6n4pa-28">
          <mxGeometry y="120" width="180" height="30" as="geometry" />
        </mxCell>
        <mxCell id="dSGslV_Rc7mYf-Z6n4pa-39" value="" style="shape=partialRectangle;connectable=0;fillColor=none;top=0;left=0;bottom=0;right=0;editable=1;overflow=hidden;" vertex="1" parent="dSGslV_Rc7mYf-Z6n4pa-38">
          <mxGeometry width="30" height="30" as="geometry" />
        </mxCell>
        <mxCell id="dSGslV_Rc7mYf-Z6n4pa-40" value="" style="shape=partialRectangle;connectable=0;fillColor=none;top=0;left=0;bottom=0;right=0;align=left;spacingLeft=6;overflow=hidden;" vertex="1" parent="dSGslV_Rc7mYf-Z6n4pa-38">
          <mxGeometry x="30" width="150" height="30" as="geometry" />
        </mxCell>
        <mxCell id="dSGslV_Rc7mYf-Z6n4pa-41" value="phone number" style="swimlane;fontStyle=0;childLayout=stackLayout;horizontal=1;startSize=26;horizontalStack=0;resizeParent=1;resizeParentMax=0;resizeLast=0;collapsible=1;marginBottom=0;align=center;fontSize=14;" vertex="1" parent="1">
          <mxGeometry x="130" y="290" width="160" height="116" as="geometry" />
        </mxCell>
        <mxCell id="dSGslV_Rc7mYf-Z6n4pa-42" value="Item 1" style="text;strokeColor=none;fillColor=none;spacingLeft=4;spacingRight=4;overflow=hidden;rotatable=0;points=[[0,0.5],[1,0.5]];portConstraint=eastwest;fontSize=12;" vertex="1" parent="dSGslV_Rc7mYf-Z6n4pa-41">
          <mxGeometry y="26" width="160" height="30" as="geometry" />
        </mxCell>
        <mxCell id="dSGslV_Rc7mYf-Z6n4pa-43" value="Item 2" style="text;strokeColor=none;fillColor=none;spacingLeft=4;spacingRight=4;overflow=hidden;rotatable=0;points=[[0,0.5],[1,0.5]];portConstraint=eastwest;fontSize=12;" vertex="1" parent="dSGslV_Rc7mYf-Z6n4pa-41">
          <mxGeometry y="56" width="160" height="30" as="geometry" />
        </mxCell>
        <mxCell id="dSGslV_Rc7mYf-Z6n4pa-44" value="Item 3" style="text;strokeColor=none;fillColor=none;spacingLeft=4;spacingRight=4;overflow=hidden;rotatable=0;points=[[0,0.5],[1,0.5]];portConstraint=eastwest;fontSize=12;" vertex="1" parent="dSGslV_Rc7mYf-Z6n4pa-41">
          <mxGeometry y="86" width="160" height="30" as="geometry" />
        </mxCell>
        <mxCell id="dSGslV_Rc7mYf-Z6n4pa-45" style="edgeStyle=orthogonalEdgeStyle;rounded=0;orthogonalLoop=1;jettySize=auto;html=1;exitX=0;exitY=0.5;exitDx=0;exitDy=0;" edge="1" parent="1" source="dSGslV_Rc7mYf-Z6n4pa-38" target="dSGslV_Rc7mYf-Z6n4pa-41">
          <mxGeometry relative="1" as="geometry" />
        </mxCell>
        <mxCell id="dSGslV_Rc7mYf-Z6n4pa-46" value="FACELTY" style="shape=table;startSize=30;container=1;collapsible=1;childLayout=tableLayout;fixedRows=1;rowLines=0;fontStyle=1;align=center;resizeLast=1;" vertex="1" parent="1">
          <mxGeometry x="640" y="60" width="180" height="160" as="geometry" />
        </mxCell>
        <mxCell id="dSGslV_Rc7mYf-Z6n4pa-47" value="" style="shape=partialRectangle;collapsible=0;dropTarget=0;pointerEvents=0;fillColor=none;top=0;left=0;bottom=1;right=0;points=[[0,0.5],[1,0.5]];portConstraint=eastwest;" vertex="1" parent="dSGslV_Rc7mYf-Z6n4pa-46">
          <mxGeometry y="30" width="180" height="30" as="geometry" />
        </mxCell>
        <mxCell id="dSGslV_Rc7mYf-Z6n4pa-48" value="PK" style="shape=partialRectangle;connectable=0;fillColor=none;top=0;left=0;bottom=0;right=0;fontStyle=1;overflow=hidden;" vertex="1" parent="dSGslV_Rc7mYf-Z6n4pa-47">
          <mxGeometry width="30" height="30" as="geometry" />
        </mxCell>
        <mxCell id="dSGslV_Rc7mYf-Z6n4pa-49" value="FACID" style="shape=partialRectangle;connectable=0;fillColor=none;top=0;left=0;bottom=0;right=0;align=left;spacingLeft=6;fontStyle=5;overflow=hidden;" vertex="1" parent="dSGslV_Rc7mYf-Z6n4pa-47">
          <mxGeometry x="30" width="150" height="30" as="geometry" />
        </mxCell>
        <mxCell id="dSGslV_Rc7mYf-Z6n4pa-50" value="" style="shape=partialRectangle;collapsible=0;dropTarget=0;pointerEvents=0;fillColor=none;top=0;left=0;bottom=0;right=0;points=[[0,0.5],[1,0.5]];portConstraint=eastwest;" vertex="1" parent="dSGslV_Rc7mYf-Z6n4pa-46">
          <mxGeometry y="60" width="180" height="30" as="geometry" />
        </mxCell>
        <mxCell id="dSGslV_Rc7mYf-Z6n4pa-51" value="" style="shape=partialRectangle;connectable=0;fillColor=none;top=0;left=0;bottom=0;right=0;editable=1;overflow=hidden;" vertex="1" parent="dSGslV_Rc7mYf-Z6n4pa-50">
          <mxGeometry width="30" height="30" as="geometry" />
        </mxCell>
        <mxCell id="dSGslV_Rc7mYf-Z6n4pa-52" value="UNI_ID" style="shape=partialRectangle;connectable=0;fillColor=none;top=0;left=0;bottom=0;right=0;align=left;spacingLeft=6;overflow=hidden;" vertex="1" parent="dSGslV_Rc7mYf-Z6n4pa-50">
          <mxGeometry x="30" width="150" height="30" as="geometry" />
        </mxCell>
        <mxCell id="dSGslV_Rc7mYf-Z6n4pa-53" value="" style="shape=partialRectangle;collapsible=0;dropTarget=0;pointerEvents=0;fillColor=none;top=0;left=0;bottom=0;right=0;points=[[0,0.5],[1,0.5]];portConstraint=eastwest;" vertex="1" parent="dSGslV_Rc7mYf-Z6n4pa-46">
          <mxGeometry y="90" width="180" height="30" as="geometry" />
        </mxCell>
        <mxCell id="dSGslV_Rc7mYf-Z6n4pa-54" value="" style="shape=partialRectangle;connectable=0;fillColor=none;top=0;left=0;bottom=0;right=0;editable=1;overflow=hidden;" vertex="1" parent="dSGslV_Rc7mYf-Z6n4pa-53">
          <mxGeometry width="30" height="30" as="geometry" />
        </mxCell>
        <mxCell id="dSGslV_Rc7mYf-Z6n4pa-55" value="FACE NAME" style="shape=partialRectangle;connectable=0;fillColor=none;top=0;left=0;bottom=0;right=0;align=left;spacingLeft=6;overflow=hidden;" vertex="1" parent="dSGslV_Rc7mYf-Z6n4pa-53">
          <mxGeometry x="30" width="150" height="30" as="geometry" />
        </mxCell>
        <mxCell id="dSGslV_Rc7mYf-Z6n4pa-56" value="" style="shape=partialRectangle;collapsible=0;dropTarget=0;pointerEvents=0;fillColor=none;top=0;left=0;bottom=0;right=0;points=[[0,0.5],[1,0.5]];portConstraint=eastwest;" vertex="1" parent="dSGslV_Rc7mYf-Z6n4pa-46">
          <mxGeometry y="120" width="180" height="30" as="geometry" />
        </mxCell>
        <mxCell id="dSGslV_Rc7mYf-Z6n4pa-57" value="" style="shape=partialRectangle;connectable=0;fillColor=none;top=0;left=0;bottom=0;right=0;editable=1;overflow=hidden;" vertex="1" parent="dSGslV_Rc7mYf-Z6n4pa-56">
          <mxGeometry width="30" height="30" as="geometry" />
        </mxCell>
        <mxCell id="dSGslV_Rc7mYf-Z6n4pa-58" value="" style="shape=partialRectangle;connectable=0;fillColor=none;top=0;left=0;bottom=0;right=0;align=left;spacingLeft=6;overflow=hidden;" vertex="1" parent="dSGslV_Rc7mYf-Z6n4pa-56">
          <mxGeometry x="30" width="150" height="30" as="geometry" />
        </mxCell>
        <mxCell id="dSGslV_Rc7mYf-Z6n4pa-59" style="edgeStyle=orthogonalEdgeStyle;rounded=0;orthogonalLoop=1;jettySize=auto;html=1;exitX=1;exitY=0.5;exitDx=0;exitDy=0;" edge="1" parent="1" source="dSGslV_Rc7mYf-Z6n4pa-29" target="dSGslV_Rc7mYf-Z6n4pa-50">
          <mxGeometry relative="1" as="geometry" />
        </mxCell>
        <mxCell id="dSGslV_Rc7mYf-Z6n4pa-61" style="edgeStyle=orthogonalEdgeStyle;rounded=0;orthogonalLoop=1;jettySize=auto;html=1;exitX=0;exitY=0.5;exitDx=0;exitDy=0;entryX=0.75;entryY=0;entryDx=0;entryDy=0;" edge="1" parent="1" source="dSGslV_Rc7mYf-Z6n4pa-56" target="dSGslV_Rc7mYf-Z6n4pa-41">
          <mxGeometry relative="1" as="geometry">
            <Array as="points">
              <mxPoint x="570" y="195" />
              <mxPoint x="570" y="230" />
              <mxPoint x="250" y="230" />
            </Array>
          </mxGeometry>
        </mxCell>
      </root>
    </mxGraphModel>
  </diagram>
</mxfile>
